<?xml version="1.0" encoding="utf-8" ?>
<svg xmlns="http://www.w3.org/2000/svg" xmlns:xlink="http://www.w3.org/1999/xlink" width="950" height="322">
	<path fill="#FEFEFE" transform="scale(2.36908 2.36765)" d="M-0 -0L401 0L401 136L-0 136L0 -0Z"/>
	<path fill="#0C378A" transform="scale(2.36908 2.36765)" d="M262.884 94.4769L267.335 94.435L272.391 102.943L277.5 94.4852L281.482 94.4646L277.232 101.574C276.343 103.012 274.935 104.769 274.415 106.344C273.847 108.063 274.224 111.106 274.223 112.97L270.043 112.978C270.119 110.941 270.394 108.516 269.911 106.532C269.576 105.156 268.391 103.598 267.646 102.364L262.884 94.4769Z"/>
	<path fill="#0C378A" transform="scale(2.36908 2.36765)" d="M157.235 94.316L157.495 94.2767C161.04 93.8675 163.923 94.9606 166.619 97.1717L163.801 99.727C162.832 98.8305 161.861 97.9441 160.546 97.6113C159.298 97.2952 157.418 97.3188 156.301 97.9853C154.635 98.9793 153.51 100.463 153.056 102.347C152.675 103.925 153.008 105.785 153.864 107.164C154.646 108.424 156.188 109.592 157.643 109.92C159.766 110.399 161.367 109.67 163.115 108.538L163.625 108.05C164.587 108.126 165.918 109.764 166.619 110.44C164.963 111.745 162.962 112.715 160.893 113.143C158.24 113.69 154.96 112.984 152.734 111.493C150.765 110.175 149.26 107.849 148.83 105.526C148.395 103.173 148.865 100.501 150.251 98.5403C151.96 96.1217 154.33 94.8005 157.235 94.316Z"/>
	<path fill="#0C378A" transform="scale(2.36908 2.36765)" d="M217.479 94.4766L231.504 94.5037L231.476 97.7413L221.569 97.7816L221.624 102.011L230.482 102.002L230.478 105.259L222.625 105.283C222.172 105.306 222.007 105.331 221.625 105.574C221.504 106.952 221.608 108.33 221.681 109.707L231.815 109.689L231.77 112.948L217.498 112.993L217.479 94.4766Z"/>
	<path fill="#0C378A" transform="scale(2.36908 2.36765)" d="M176.963 94.404L181.088 94.477L189.4 112.954L184.992 112.918C184.619 111.937 184.148 110.022 183.439 109.297C183.028 108.877 182.378 109.012 181.813 109.005L174.545 108.997C173.973 110.265 173.652 111.805 172.964 112.976L168.71 113.026L176.963 94.404Z"/>
	<path fill="#FEFEFE" transform="scale(2.36908 2.36765)" d="M178.724 99.125L179.287 99.2604C180.22 101.156 181.176 103.224 181.775 105.25L181.5 105.689L178.688 105.746L175.953 105.734L178.724 99.125Z"/>
	<path fill="#0C378A" transform="scale(2.36908 2.36765)" d="M133.724 94.4711L137.934 94.4965L146.202 112.962L141.945 113.016C141.057 112.291 141.1 110.219 140.279 109.313C139.866 108.857 138.899 109.024 138.294 109.013L131.331 109.014L129.778 112.978L125.428 113.015L133.724 94.4711Z"/>
	<path fill="#FEFEFE" transform="scale(2.36908 2.36765)" d="M135.52 99.125C135.72 99.1482 135.929 99.2187 136.125 99.2694L138.604 105.237L138.375 105.7L135.968 105.744L132.689 105.741L135.52 99.125Z"/>
	<path fill="#0C378A" transform="scale(2.36908 2.36765)" d="M237.714 94.4553L241.255 94.4857C241.868 95.8106 242.785 97.0916 243.545 98.3484L248.267 106.224L255.239 94.4421L258.605 94.497L258.589 112.988L254.818 112.966L254.806 109.312L254.768 101.828L251.312 107.398C250.482 108.806 249.734 110.708 248.125 111.276C246.907 110.85 246.278 109.456 245.62 108.383L241.591 101.985L241.547 112.816C241.015 113.209 238.57 112.999 237.787 113.008C237.432 112.525 237.656 109.803 237.658 109.086L237.714 94.4553Z"/>
	<path fill="#0C378A" transform="scale(2.36908 2.36765)" d="M193.54 94.4312C198.837 94.8466 205.12 93.2168 209.533 96.9796C210.948 98.1861 212.098 100.368 212.224 102.223C212.447 105.497 211.94 107.707 209.759 110.222C205.793 114.001 198.607 112.984 193.542 113.007L193.54 94.4312Z"/>
	<path fill="#FEFEFE" transform="scale(2.36908 2.36765)" d="M197.721 97.7694C200.475 97.7471 203.697 97.1978 205.968 99.04C207.043 99.9123 207.886 101.175 208.021 102.582C208.25 104.981 207.859 106.358 206.314 108.202C203.89 110.266 200.674 109.729 197.695 109.692L197.721 97.7694Z"/>
	<path fill="#0C378A" transform="scale(2.36908 2.36765)" d="M52.5866 25.7869C52.9976 25.7548 53.423 25.7262 53.8343 25.7623C56.1721 25.9677 57.9844 27.0224 59.4865 28.794C61.4804 31.1457 63.2109 33.7898 65.0235 36.2849C66.4124 38.1969 68.1142 40.1136 69.092 42.277C69.5165 43.216 69.7651 44.3293 69.6693 45.3602C69.5729 46.3974 69.2733 47.5254 68.8177 48.4606C67.3268 51.5211 65.0683 54.3842 63.1887 57.2186L58.4982 64.25C56.955 66.592 55.6494 68.7853 53.4438 70.5837C52.9536 70.8628 52.4616 71.0374 51.9176 71.1769C49.9504 71.6814 48.3863 71.5295 46.625 70.4721C45.662 69.8939 43.5164 68.2641 43.2487 67.1321C42.8674 65.52 42.7859 62.97 43.3065 61.3843C43.7758 59.955 44.968 58.492 45.8079 57.2489L50.9661 49.5117C54.069 44.4928 51.2407 41.8772 48.3001 37.833C47.4982 36.7301 46.5907 35.555 46.2901 34.1949C45.9212 32.5257 46.2333 30.4083 47.1609 28.9595C48.4567 26.9357 50.3738 26.283 52.5866 25.7869Z"/>
	<path fill="#0C378A" transform="scale(2.36908 2.36765)" d="M78.8853 20.0244C79.7231 19.9822 80.5514 19.9559 81.3737 20.1493C82.5774 20.4325 83.5851 20.9008 84.4736 21.7743C86.7062 23.9691 88.5108 27.3742 90.2544 29.9919L97.9174 41.5317C99.154 43.5528 99.9837 45.8686 99.375 48.2657C98.9752 49.8399 97.8967 51.1834 96.957 52.4747L93.0435 57.7945C91.7546 59.5436 90.5442 61.5056 89.0527 63.0753C88.2851 63.8831 87.3894 64.4685 86.4366 65.0325L86.3488 65.065C84.7189 65.66 81.871 65.867 80.2697 65.1031C78.4717 64.2453 77.008 62.7729 76.3621 60.8729C74.6617 55.8711 79.7993 52.4882 81.729 48.4433C82.2 47.456 82.4738 46.3826 82.3163 45.2842C82.0705 43.5691 80.9236 41.9208 79.997 40.5L75.3114 33.5926C74.329 32.1618 73.1095 30.5942 72.551 28.9378C72.0958 27.5874 72.1864 26.0547 72.8334 24.7841C74.0689 22.3578 76.3593 20.8407 78.8853 20.0244Z"/>
	<path fill="#0C378A" transform="scale(2.36908 2.36765)" d="M131.196 16.7761C132.591 16.6724 134.033 16.9562 135.275 17.6054C136.753 18.3785 138.046 19.6837 138.535 21.3081C138.992 22.827 138.757 24.9657 138.761 26.5688L138.755 37.3016L138.771 58.741L138.741 69.4907C138.707 70.2646 138.483 71.1604 138.11 71.8444C137.069 73.751 135.099 74.6657 133.133 75.2591C131.562 75.3309 130.397 75.2602 128.983 74.5171C127.525 73.7502 126.189 72.2599 125.706 70.665C125.059 68.5322 125.398 65.6148 125.397 63.3701L125.396 50.0087L125.385 32.46C125.386 29.2645 125.226 25.961 125.47 22.7766C125.544 21.7999 125.85 20.984 126.308 20.1263C127.356 18.1649 129.185 17.3941 131.196 16.7761Z"/>
	<path fill="#0C378A" transform="scale(2.36908 2.36765)" d="M322.571 16.8515C330.412 16.4328 338.958 18.7917 344.992 23.9305C350.375 28.5141 354.224 34.7366 354.804 41.8913C355.498 50.4561 354.338 58.4676 348.59 65.1924C344.248 70.2706 336.787 74.7915 330.024 75.2859C328.515 75.3961 327.382 75.0446 326.236 74.0445C325.028 72.9901 324.566 71.5153 324.466 69.9658C324.407 69.035 324.293 67.5594 324.654 66.7131C325.762 64.1154 330.669 63.6001 333.049 62.3299C335.31 61.1238 336.95 59.3203 338.61 57.4184C341.48 52.9927 342.324 48.6646 341.761 43.4484C341.313 39.2995 339.137 34.7911 335.832 32.1572C332.082 29.1694 327.128 27.4686 322.309 28.057C316.28 28.7932 311.058 31.816 308.302 37.3908C307.475 39.0636 306.967 41.2152 305.811 42.6726C304.747 44.014 302.783 44.9847 301.089 45.1499C299.533 45.3016 297.71 44.5719 296.543 43.5791C295.209 42.4432 294.423 41.1151 294.28 39.3586C293.945 35.2307 297.082 30.3852 299.655 27.35C305.609 20.3288 313.661 17.5806 322.571 16.8515Z"/>
	<path fill="#0C378A" transform="scale(2.36908 2.36765)" d="M258.047 16.8538C262.539 16.6204 267.187 17.304 271.419 18.8189C274.41 19.8893 278.476 21.6482 279.876 24.6631C280.423 25.8398 280.491 27.5726 280.026 28.7835C279.467 30.2386 278.033 31.5957 276.624 32.2074C273.053 33.7578 269.633 30.3111 266.442 29.0873C262.063 27.4077 256.58 27.6812 252.305 29.5979C247.797 31.6191 244.747 34.921 242.989 39.5527C241.168 44.3523 241.434 49.8307 243.552 54.4936C245.463 58.6985 249.237 61.9409 253.526 63.5312C257.746 65.0961 263.432 65.0322 267.495 63.1142C269.258 62.2822 270.838 61.0394 272.625 60.2656C274.126 59.6155 275.647 59.9275 277.104 60.511C277.524 60.7459 277.919 61.0458 278.289 61.3532C279.342 62.2268 280.179 63.6355 280.301 65.0149C280.441 66.597 280.232 67.9074 279.2 69.1336C275.725 73.2608 268.097 75.1551 263.032 75.6018C254.479 76.356 245.382 74.4135 238.701 68.7708C233.096 64.0369 229.326 57.0212 228.728 49.6752C228.042 41.2671 230.008 33.4615 235.54 26.9898C241.346 20.1979 249.392 17.5345 258.047 16.8538Z"/>
	<path fill="#0C378A" transform="scale(2.36908 2.36765)" d="M204.574 16.8007C205.521 16.7597 206.533 16.6905 207.444 16.9898C209.363 17.6204 210.887 18.8996 211.801 20.71C212.091 21.285 212.205 21.8822 212.237 22.5219L212.266 47.7239L212.257 62.1692C212.254 64.6876 212.643 67.9019 211.855 70.2691C211.26 72.059 209.911 73.6412 208.211 74.4727C206.004 75.5527 203.461 75.6311 201.277 74.4192C198.416 72.8317 195.663 68.5073 193.583 65.9769C191.317 63.2225 174.159 41.4623 172.5 40.889L172.186 41.125C171.671 43.2322 172.033 46.229 172.033 48.4281L172.046 64.9241C172.073 66.4976 172.171 68.2763 171.882 69.819C171.525 71.7179 170.427 73.2188 168.83 74.2902C167.393 75.2545 165.606 75.5494 163.91 75.1784C162.337 74.8342 160.777 73.7214 159.917 72.3732C159.298 71.4028 158.94 70.4805 158.808 69.3422C158.586 67.4398 158.72 65.4189 158.717 63.4974L158.717 52.8531C158.72 50.4363 158.29 47.0337 158.835 44.7275C159.406 42.3097 170.772 27.6671 172.837 26.4154C174.089 25.6563 175.656 25.5713 176.957 26.2288C178.942 27.2319 180.584 29.7575 181.968 31.4507L189.248 40.3986C190.389 41.7548 191.821 43.769 193.64 44.1786C194.769 44.4327 195.709 44.1851 196.671 43.5731C197.693 42.9229 198.562 42.0145 198.85 40.8223C199.221 39.2892 199.017 37.3994 199.018 35.8228L199.026 26.2452C199.031 24.5893 198.94 22.3727 199.64 20.8561C200.651 18.6616 202.4 17.6056 204.574 16.8007Z"/>
</svg>
