<?xml version="1.0" encoding="utf-8" ?>
<svg xmlns="http://www.w3.org/2000/svg" xmlns:xlink="http://www.w3.org/1999/xlink" width="225" height="225">
	<path fill="#00378C" d="M-0 -0L225 0L225 225L-0 225L0 -0Z"/>
	<path fill="#FEFEFE" d="M44.2874 98.2469C44.8672 98.2328 45.439 98.2367 46.007 98.3689C46.6863 98.527 47.2191 98.8697 47.7045 99.3674C48.9162 100.61 49.8826 102.304 50.8363 103.765L54.7858 109.718C55.6591 111.09 56.3819 112.491 55.9438 114.178C55.3862 116.324 50.2778 122.539 48.3569 123.715C47.3467 123.932 46.4187 124.037 45.4347 123.641C44.438 123.24 43.4634 122.543 43.0284 121.529C41.62 118.247 45.1399 116.145 46.2525 113.324C46.8498 111.809 42.7153 106.679 41.8435 105.308C41.2438 104.365 40.7789 103.362 40.3255 102.343C41.1779 100.261 42.2859 99.191 44.2874 98.2469Z"/>
	<path fill="#FEFEFE" d="M29.39 101.501C30.5253 101.434 31.512 101.332 32.4922 102.024L32.625 102.12L33.2393 102.603C35.1733 104.441 36.9441 107.241 38.4336 109.465C38.9841 110.287 39.5864 111.177 39.5784 112.206C39.5621 114.293 37.3661 116.945 36.2528 118.625C34.4125 121.402 32.7432 124.352 30.3705 126.712L30.2626 126.765C29.4134 127.138 27.8903 127.142 27.0234 126.805C25.8118 126.333 24.689 125.189 24.2033 123.986C23.0445 121.116 28.4568 116.333 29.4138 113.698C30.4103 110.954 27.4374 109.082 26.4097 106.875C25.9751 105.942 26.0179 104.937 26.3793 103.981C26.8733 102.674 28.1933 102.02 29.39 101.501Z"/>
	<path fill="#FEFEFE" d="M73.1869 96.5061C73.9376 96.4585 74.5501 96.4778 75.25 96.7807C76.2716 97.2228 77.098 97.8541 77.4953 98.9216C78.0642 100.45 77.7764 102.845 77.7808 104.486L77.7796 120.661C77.7752 122.42 78.1645 125.462 77.3739 127.057C76.8064 128.202 75.9963 128.607 74.8356 129.025C74.1498 129.037 73.3474 129.093 72.678 128.936C71.8736 128.747 70.9927 128.027 70.5983 127.309C69.6778 125.633 69.6729 101.043 70.3874 98.8548C70.7903 97.6209 72.1113 97.0351 73.1869 96.5061Z"/>
	<path fill="#FEFEFE" d="M177.988 96.5789L179.412 96.5214C184.145 96.3982 188.976 97.956 192.428 101.273C195.485 104.208 197.228 108.289 197.277 112.526C197.325 116.738 195.885 121 192.91 124.029C190.592 126.389 186.19 129.157 182.75 128.975C181.836 128.927 181.29 128.511 180.7 127.847C180.04 127.104 179.957 125.947 180.008 125C180.133 122.689 182.873 122.573 184.552 121.744C185.551 121.251 186.35 120.535 187.176 119.802C187.761 119.116 188.236 118.371 188.65 117.573C189.855 115.253 189.987 111.882 189.177 109.408C188.434 107.135 186.614 105.034 184.468 103.993C181.998 102.794 178.968 102.654 176.38 103.564C172.888 104.791 171.829 107.334 170.3 110.399C169.814 111.372 169.128 111.876 168.125 112.222C167.244 112.526 166.65 112.458 165.771 112.115C164.879 111.766 164.107 111.077 163.715 110.198L163.661 110.075C163.527 109.774 163.398 109.474 163.346 109.145C163.064 107.373 164.562 104.922 165.566 103.522C168.66 99.2087 172.908 97.403 177.988 96.5789Z"/>
	<path fill="#FEFEFE" d="M142.292 96.5715C142.577 96.5225 142.853 96.5188 143.143 96.5127C146.764 96.4359 152.427 97.1407 155.027 99.9759C155.675 100.682 155.766 101.217 155.77 102.131C155.774 103.081 155.476 103.915 154.777 104.584C152.645 106.62 150.843 104.754 148.781 103.803C147.764 103.333 146.509 103.021 145.385 102.971C142.563 102.845 139.831 103.545 137.73 105.518C135.898 107.239 134.81 109.881 134.739 112.384C134.665 115.004 135.524 117.862 137.375 119.782C140.134 122.643 144.719 123.506 148.394 122.031C150.052 121.365 151.136 120.217 153.017 120.239L153.125 120.241C153.449 120.3 153.727 120.414 154.01 120.578C154.825 121.049 155.567 121.821 155.795 122.765C155.974 123.512 155.819 124.497 155.39 125.136C153.98 127.235 150.105 128.398 147.758 128.803C143.097 129.609 137.714 128.729 133.824 125.982C130.415 123.575 128.07 119.754 127.404 115.644C126.706 111.336 127.673 106.833 130.228 103.292C133.179 99.2015 137.435 97.3628 142.292 96.5715Z"/>
	<path fill="#FEFEFE" d="M113.877 96.625C114.263 96.5535 114.662 96.4929 115.055 96.5014C115.959 96.521 116.937 97.203 117.536 97.8375C118.007 98.3358 118.323 98.9456 118.44 99.623C118.87 102.118 118.525 105.241 118.528 107.79L118.515 124.755C118.488 125.939 118.037 127.2 117.148 128.012C116.183 128.895 114.957 129.161 113.68 129.07C112.863 129.012 112.228 128.783 111.598 128.253C109.784 126.729 108.211 124.375 106.71 122.536L96.0638 109.685L96.1918 123.563C96.1657 124.557 96.1314 125.765 95.8426 126.715C95.5918 127.54 94.8788 128.355 94.1172 128.755C93.3224 129.173 91.8018 129.189 90.9771 128.903C90.2368 128.646 89.3241 127.857 88.9762 127.157L88.9223 127.046C88.755 126.711 88.6256 126.383 88.5552 126.012C88.363 125 88.4877 123.74 88.4777 122.702L88.4603 115.664C88.4656 114.55 88.1596 112.238 88.8188 111.379L94.0553 104.527C94.784 103.602 95.7054 102.114 96.844 101.671C97.469 101.428 98.1266 101.367 98.7345 101.683C99.5822 102.124 100.411 103.224 101.021 103.949L105.522 109.501C106.059 110.146 106.862 111.27 107.673 111.557C108.351 111.797 108.827 111.756 109.467 111.453C112.568 109.981 110.101 101.724 111.2 98.8708C111.631 97.7524 112.825 97.0402 113.877 96.625Z"/>
</svg>
